<?xml version="1.0" encoding="UTF-8" standalone="no"?>
<!-- Created with Inkscape (http://www.inkscape.org/) -->

<svg
   width="118.79792mm"
   height="113.24167mm"
   viewBox="0 0 118.79792 113.24167"
   version="1.1"
   id="svg103"
   xml:space="preserve"
   inkscape:version="1.2.2 (b0a8486541, 2022-12-01)"
   sodipodi:docname="Tetrics_logo.svg"
   xmlns:inkscape="http://www.inkscape.org/namespaces/inkscape"
   xmlns:sodipodi="http://sodipodi.sourceforge.net/DTD/sodipodi-0.dtd"
   xmlns="http://www.w3.org/2000/svg"
   xmlns:svg="http://www.w3.org/2000/svg"><sodipodi:namedview
     id="namedview105"
     pagecolor="#ffffff"
     bordercolor="#000000"
     borderopacity="0.25"
     inkscape:showpageshadow="2"
     inkscape:pageopacity="0.0"
     inkscape:pagecheckerboard="0"
     inkscape:deskcolor="#d1d1d1"
     inkscape:document-units="mm"
     showgrid="false"
     inkscape:zoom="1.5358305"
     inkscape:cx="263.04986"
     inkscape:cy="228.54084"
     inkscape:window-width="1920"
     inkscape:window-height="1048"
     inkscape:window-x="0"
     inkscape:window-y="0"
     inkscape:window-maximized="1"
     inkscape:current-layer="layer1" /><defs
     id="defs100" /><g
     inkscape:label="Layer 1"
     inkscape:groupmode="layer"
     id="layer1"
     transform="translate(-38.797096,-82.576378)"><path
       id="rect381"
       style="fill:#000000;stroke-width:0.254856"
       d="m 68.412859,108.09574 c -1.661998,0 -2.999817,1.33782 -2.999817,2.99982 v 16.21503 c 0,1.662 1.337819,2.99982 2.999817,2.99982 h 19.503719 v 18.37872 l 9.66246,8.01605 10.334772,-10.21281 v -16.18196 h 20.19411 c 1.662,0 2.99982,-1.33782 2.99982,-2.99982 v -16.21503 c 0,-1.662 -1.33782,-2.99982 -2.99982,-2.99982 z" /><path
       id="rect495"
       style="fill:#000000;stroke-width:0.231104"
       d="m 120.36679,142.06422 c -1.0691,0.0249 -2.17544,0.48844 -3.03599,1.36994 l -19.64789,20.1259 c -0.05444,0.0558 -0.106571,0.11295 -0.157616,0.17053 L 84.161767,151.62022 c -1.71827,-1.55713 -4.206255,-1.59173 -5.578472,-0.0775 -1.372209,1.51422 -1.094018,3.98671 0.624252,5.54384 l 8.664589,7.85172 v 4.90875 c -3e-6,1.74114 1.337819,3.14296 2.999819,3.14296 h 14.218255 c 1.66199,-1e-5 2.99981,-1.40182 2.99982,-3.14296 v -6.30143 l 14.56241,-14.91691 c 1.61986,-1.65929 1.73704,-4.15346 0.26304,-5.59243 -0.69094,-0.67451 -1.60537,-0.99398 -2.54869,-0.97203 z" /><rect
       style="fill:none;stroke:#000000;stroke-width:8;stroke-linecap:butt;stroke-dasharray:none;stroke-opacity:1;paint-order:normal"
       id="rect533"
       width="97.24398"
       height="96.203537"
       x="49.24184"
       y="91.394707"
       rx="8"
       ry="8" /></g></svg>
